# Blender 4.4.3
# www.blender.org
mtllib Room.mtl
o Cube
v 9.581908 6.345697 -6.345697
v 9.581908 -6.345697 -6.345697
v 9.581908 6.345697 6.345697
v 9.581908 -6.345697 6.345697
v -9.581908 6.345697 -6.345697
v -9.581908 -6.345697 -6.345697
v -9.581908 6.345697 6.345697
v -9.581908 -6.345697 6.345697
v 9.581908 -1.836672 -6.345697
v -9.581908 -1.836672 6.345697
v -9.581908 -1.836672 -6.345697
v -9.581908 -6.345697 -2.117113
v -9.581908 -6.345697 2.113351
v 9.581908 6.345697 -2.117113
v 9.581908 6.345697 2.113351
v -9.581908 6.345697 2.113351
v -9.581908 6.345697 -2.117113
v 9.581908 -6.345697 2.113351
v 9.581908 -6.345697 -2.117113
v -9.581908 -1.836672 2.113351
v -9.581908 -1.836672 -2.117113
v -9.581908 -6.356850 -1.733770
v -9.581908 -6.356850 1.730008
v -9.581908 -2.664996 1.730008
v -9.581908 -2.664996 -1.733770
v -13.750502 -6.356850 -1.733770
v -13.750502 -6.356850 1.730008
v -13.750502 -2.664996 1.730008
v -13.750502 -2.664996 -1.733770
v -15.967680 -6.356850 -1.733770
v -15.967680 -6.356850 1.730008
v -15.967680 -2.664996 1.730008
v -15.967680 -2.664996 -1.733770
vn -0.0000 1.0000 -0.0000
vn -1.0000 -0.0000 -0.0000
vn -0.0000 -1.0000 -0.0000
vn -0.0000 -0.0000 -1.0000
vn 1.0000 -0.0000 -0.0000
vn -0.0000 -0.0000 1.0000
vt 0.625000 0.666630
vt 0.875000 0.666630
vt 0.875000 0.750000
vt 0.625000 0.750000
vt 0.375000 0.166704
vt 0.463821 0.166704
vt 0.463821 0.250000
vt 0.375000 0.250000
vt 0.625000 0.166704
vt 0.625000 0.250000
vt 0.125000 0.666630
vt 0.375000 0.666630
vt 0.375000 0.750000
vt 0.125000 0.750000
vt 0.463821 0.500000
vt 0.375000 0.500000
vt 0.625000 0.500000
vt 0.125000 0.500000
vt 0.375000 0.583296
vt 0.125000 0.583296
vt 0.463821 0.000000
vt 0.625000 0.000000
vt 0.625000 0.083370
vt 0.463821 0.083370
vt 0.375000 0.000000
vt 0.375000 0.083370
vt 0.875000 0.500000
vt 0.875000 0.583296
vt 0.625000 0.583296
s 0
usemtl Material
f 15/1/1 16/2/1 7/3/1 3/4/1
f 12/5/2 21/6/2 11/7/2 6/8/2
f 21/6/2 17/9/2 5/10/2 11/7/2
f 13/11/3 18/12/3 4/13/3 8/14/3
f 6/8/4 11/7/4 9/15/4 2/16/4
f 11/7/4 5/10/4 1/17/4 9/15/4
f 6/18/3 2/16/3 19/19/3 12/20/3
f 12/20/3 19/19/3 18/12/3 13/11/3
f 10/21/2 7/22/2 16/23/2 20/24/2
f 20/24/2 16/23/2 17/9/2 21/6/2
f 8/25/2 10/21/2 20/24/2 13/26/2
f 12/20/5 13/11/5 23/11/5 22/20/5
f 1/17/1 5/27/1 17/28/1 14/29/1
f 14/29/1 17/28/1 16/2/1 15/1/1
f 25/6/4 22/5/4 26/5/4 29/6/4
f 21/6/2 12/5/2 22/5/2 25/6/2
f 20/24/2 21/6/2 25/6/2 24/24/2
f 13/26/2 20/24/2 24/24/2 23/26/2
f 27/26/6 28/24/6 32/24/6 31/26/6
f 24/24/1 25/6/1 29/6/1 28/24/1
f 23/26/6 24/24/6 28/24/6 27/26/6
f 22/20/3 23/11/3 27/11/3 26/20/3
f 26/20/3 27/11/3 31/11/3 30/20/3
f 29/6/4 26/5/4 30/5/4 33/6/4
f 28/24/1 29/6/1 33/6/1 32/24/1
